# Blender v2.81 (sub 16) OBJ File: ''
# www.blender.org
mtllib button_top.mtl
o Cube.001_Cube.002
v -0.476617 0.444906 0.768738
v -0.768738 0.444906 0.476617
v -0.566887 0.444906 0.754440
v -0.648321 0.444906 0.712948
v -0.712948 0.444906 0.648321
v -0.754440 0.444906 0.566887
v -0.768738 0.179142 0.476617
v -0.476617 0.179142 0.768738
v -0.754440 0.179142 0.566887
v -0.712948 0.179142 0.648321
v -0.648321 0.179142 0.712948
v -0.566887 0.179142 0.754440
v -0.768738 0.444906 -0.476617
v -0.476617 0.444906 -0.768738
v -0.754440 0.444906 -0.566887
v -0.712948 0.444906 -0.648321
v -0.648321 0.444906 -0.712948
v -0.566887 0.444906 -0.754440
v -0.476617 0.179142 -0.768738
v -0.768738 0.179142 -0.476617
v -0.566887 0.179142 -0.754440
v -0.648321 0.179142 -0.712948
v -0.712948 0.179142 -0.648321
v -0.754440 0.179142 -0.566887
v 0.768738 0.444906 0.476617
v 0.476617 0.444906 0.768738
v 0.754440 0.444906 0.566887
v 0.712948 0.444906 0.648321
v 0.648321 0.444906 0.712948
v 0.566887 0.444906 0.754440
v 0.476617 0.179142 0.768738
v 0.768738 0.179142 0.476617
v 0.566887 0.179142 0.754440
v 0.648321 0.179142 0.712948
v 0.712948 0.179142 0.648321
v 0.754440 0.179142 0.566887
v 0.476617 0.444906 -0.768738
v 0.768738 0.444906 -0.476617
v 0.566887 0.444906 -0.754440
v 0.648321 0.444906 -0.712948
v 0.712948 0.444906 -0.648321
v 0.754440 0.444906 -0.566887
v 0.768738 0.179142 -0.476617
v 0.476617 0.179142 -0.768738
v 0.754440 0.179142 -0.566887
v 0.712948 0.179142 -0.648321
v 0.648321 0.179142 -0.712948
v 0.566887 0.179142 -0.754440
vt 0.375000 0.797500
vt 0.375000 0.952500
vt 0.625000 0.952500
vt 0.625000 0.797500
vt 0.375000 0.547500
vt 0.375000 0.702500
vt 0.625000 0.702500
vt 0.625000 0.547500
vt 0.625775 0.717178
vt 0.628024 0.730420
vt 0.631527 0.760030
vt 0.635941 0.771106
vt 0.672500 0.750000
vt 0.827500 0.750000
vt 0.842178 0.747675
vt 0.855420 0.740928
vt 0.865928 0.730420
vt 0.872675 0.717178
vt 0.875000 0.702500
vt 0.875000 0.547500
vt 0.707558 0.322393
vt 0.705310 0.326807
vt 0.701807 0.349411
vt 0.697393 0.355989
vt 0.827500 0.500000
vt 0.672500 0.500000
vt 0.635941 0.478894
vt 0.631527 0.489970
vt 0.628024 0.519580
vt 0.625775 0.532822
vt 0.375000 0.047500
vt 0.375000 0.202500
vt 0.625000 0.202500
vt 0.625000 0.047500
vt 0.375000 0.297500
vt 0.375000 0.452500
vt 0.625000 0.452500
vt 0.625000 0.297500
vt 0.375000 0.967178
vt 0.625000 0.967178
vt 0.375000 0.980420
vt 0.625000 0.980420
vt 0.375000 1.000000
vt 0.625000 1.000000
vt 0.375000 0.019580
vt 0.375000 0.032822
vt 0.625000 0.032822
vt 0.625000 0.019580
vt 0.302607 0.355989
vt 0.298193 0.349411
vt 0.294691 0.326807
vt 0.292442 0.322393
vt 0.374225 0.532822
vt 0.371976 0.519580
vt 0.368473 0.489970
vt 0.364059 0.478894
vt 0.364059 0.771106
vt 0.368473 0.760030
vt 0.371976 0.730420
vt 0.374225 0.717178
vt 0.125000 0.547500
vt 0.125000 0.702500
vt 0.127325 0.717178
vt 0.134072 0.730420
vt 0.144580 0.740928
vt 0.157822 0.747675
vt 0.172500 0.750000
vt 0.327500 0.750000
vt 0.327500 0.500000
vt 0.172500 0.500000
vn 0.0785 0.0000 0.9969
vn -0.0785 0.0000 0.9969
vn 0.9969 0.0000 -0.0785
vn 0.9969 0.0000 0.0785
vn 0.0000 -1.0000 0.0000
vn -0.9969 0.0000 0.0785
vn -0.9969 0.0000 -0.0785
vn -0.0785 0.0000 -0.9969
vn 0.0785 0.0000 -0.9969
vn -0.3090 0.0000 0.9511
vn -0.5878 0.0000 0.8090
vn -0.8090 0.0000 0.5878
vn -0.9511 0.0000 0.3090
vn -0.3090 0.0000 -0.9511
vn -0.5878 0.0000 -0.8090
vn -0.8090 0.0000 -0.5878
vn -0.9511 0.0000 -0.3090
vn 0.9511 0.0000 -0.3090
vn 0.8090 0.0000 -0.5878
vn 0.5878 0.0000 -0.8090
vn 0.3090 0.0000 -0.9511
vn 0.3090 0.0000 0.9511
vn 0.5878 0.0000 0.8090
vn 0.8090 0.0000 0.5878
vn 0.9511 0.0000 0.3090
vn 0.0000 1.0000 0.0000
usemtl Material.001
s 1
f 26/1/1 1/2/2 8/3/2 31/4/1
f 38/5/3 25/6/4 32/7/4 43/8/3
f 43/8/5 32/7/5 36/9/5 35/10/5 34/11/5 33/12/5 31/13/5 8/14/5 12/15/5 11/16/5 10/17/5 9/18/5 7/19/5 20/20/5 24/21/5 23/22/5 22/23/5 21/24/5 19/25/5 44/26/5 48/27/5 47/28/5 46/29/5 45/30/5
f 2/31/6 13/32/7 20/33/7 7/34/6
f 14/35/8 37/36/9 44/37/9 19/38/8
f 1/2/2 3/39/10 12/40/10 8/3/2
f 3/39/10 4/41/11 11/42/11 12/40/10
f 4/41/11 5/43/12 10/44/12 11/42/11
f 5/45/12 6/46/13 9/47/13 10/48/12
f 6/46/13 2/31/6 7/34/6 9/47/13
f 19/38/8 21/24/14 18/49/14 14/35/8
f 21/24/14 22/23/15 17/50/15 18/49/14
f 22/23/15 23/22/16 16/51/16 17/50/15
f 23/22/16 24/21/17 15/52/17 16/51/16
f 24/21/17 20/33/7 13/32/7 15/52/17
f 43/8/3 45/30/18 42/53/18 38/5/3
f 45/30/18 46/29/19 41/54/19 42/53/18
f 46/29/19 47/28/20 40/55/20 41/54/19
f 47/28/20 48/27/21 39/56/21 40/55/20
f 48/27/21 44/37/9 37/36/9 39/56/21
f 31/4/1 33/12/22 30/57/22 26/1/1
f 33/12/22 34/11/23 29/58/23 30/57/22
f 34/11/23 35/10/24 28/59/24 29/58/23
f 35/10/24 36/9/25 27/60/25 28/59/24
f 36/9/25 32/7/4 25/6/4 27/60/25
f 13/61/26 2/62/26 6/63/26 5/64/26 4/65/26 3/66/26 1/67/26 26/68/26 30/57/26 29/58/26 28/59/26 27/60/26 25/6/26 38/5/26 42/53/26 41/54/26 40/55/26 39/56/26 37/69/26 14/70/26 18/49/26 17/50/26 16/51/26 15/52/26
